<?xml version="1.0" encoding="UTF-8" standalone="no"?>
<!-- Created with Inkscape (http://www.inkscape.org/) -->

<svg
   width="500"
   height="500"
   viewBox="0 0 132.29166 132.29167"
   version="1.1"
   id="svg1"
   inkscape:version="1.3 (0e150ed6c4, 2023-07-21)"
   sodipodi:docname="heart.svg"
   inkscape:export-filename="heart.png"
   inkscape:export-xdpi="96"
   inkscape:export-ydpi="96"
   xmlns:inkscape="http://www.inkscape.org/namespaces/inkscape"
   xmlns:sodipodi="http://sodipodi.sourceforge.net/DTD/sodipodi-0.dtd"
   xmlns="http://www.w3.org/2000/svg"
   xmlns:svg="http://www.w3.org/2000/svg">
  <sodipodi:namedview
     id="namedview1"
     pagecolor="#ffffff"
     bordercolor="#000000"
     borderopacity="0.25"
     inkscape:showpageshadow="2"
     inkscape:pageopacity="0.0"
     inkscape:pagecheckerboard="0"
     inkscape:deskcolor="#d1d1d1"
     inkscape:document-units="mm"
     inkscape:zoom="0.25"
     inkscape:cx="480"
     inkscape:cy="1050"
     inkscape:window-width="1920"
     inkscape:window-height="991"
     inkscape:window-x="-9"
     inkscape:window-y="-9"
     inkscape:window-maximized="1"
     inkscape:current-layer="layer1"
     showgrid="false" />
  <defs
     id="defs1">
    <inkscape:path-effect
       effect="fillet_chamfer"
       id="path-effect14"
       is_visible="true"
       lpeversion="1"
       nodesatellites_param="F,0,0,1,0,39.6875,0,1 @ F,0,0,1,0,39.6875,0,1 @ F,0,0,1,0,39.6875,0,1 @ F,0,0,1,0,39.6875,0,1"
       radius="150"
       unit="px"
       method="auto"
       mode="F"
       chamfer_steps="1"
       flexible="false"
       use_knot_distance="true"
       apply_no_radius="true"
       apply_with_radius="true"
       only_selected="false"
       hide_knots="false" />
    <inkscape:path-effect
       effect="fillet_chamfer"
       id="path-effect12"
       is_visible="true"
       lpeversion="1"
       nodesatellites_param="F,0,0,1,0,39.6875,0,1 @ F,0,0,1,0,39.6875,0,1 @ F,0,0,1,0,39.6875,0,1 @ F,0,0,1,0,39.6875,0,1"
       radius="150"
       unit="px"
       method="auto"
       mode="F"
       chamfer_steps="1"
       flexible="false"
       use_knot_distance="true"
       apply_no_radius="true"
       apply_with_radius="true"
       only_selected="false"
       hide_knots="false" />
    <inkscape:path-effect
       effect="fillet_chamfer"
       id="path-effect10"
       is_visible="true"
       lpeversion="1"
       nodesatellites_param="F,0,0,1,0,39.6875,0,1 @ F,0,0,1,0,39.6875,0,1 @ F,0,0,1,0,39.6875,0,1 @ F,0,0,1,0,39.6875,0,1"
       radius="150"
       unit="px"
       method="auto"
       mode="F"
       chamfer_steps="1"
       flexible="false"
       use_knot_distance="true"
       apply_no_radius="true"
       apply_with_radius="true"
       only_selected="false"
       hide_knots="false" />
    <inkscape:path-effect
       effect="fillet_chamfer"
       id="path-effect8"
       is_visible="true"
       lpeversion="1"
       nodesatellites_param="F,0,0,1,0,39.6875,0,1 @ F,0,0,1,0,39.6875,0,1 @ F,0,0,1,0,39.6875,0,1 @ F,0,0,1,0,39.6875,0,1"
       radius="150"
       unit="px"
       method="auto"
       mode="F"
       chamfer_steps="1"
       flexible="false"
       use_knot_distance="true"
       apply_no_radius="true"
       apply_with_radius="true"
       only_selected="false"
       hide_knots="false" />
    <inkscape:path-effect
       effect="fillet_chamfer"
       id="path-effect7"
       is_visible="true"
       lpeversion="1"
       nodesatellites_param="F,0,0,1,0,0,0,1 @ F,0,0,1,0,0,0,1 @ F,0,0,1,0,0,0,1 @ F,0,0,1,0,0,0,1 @ F,0,0,1,0,0,0,1 @ F,0,0,1,0,0,0,1 @ F,0,0,1,0,0,0,1 @ F,0,1,1,0,13.229167,0,1"
       radius="50"
       unit="px"
       method="auto"
       mode="F"
       chamfer_steps="1"
       flexible="false"
       use_knot_distance="true"
       apply_no_radius="true"
       apply_with_radius="true"
       only_selected="true"
       hide_knots="false" />
    <inkscape:path-effect
       effect="fillet_chamfer"
       id="path-effect5"
       is_visible="true"
       lpeversion="1"
       nodesatellites_param="F,0,0,1,0,0,0,1 @ F,0,0,1,0,0,0,1 @ F,0,0,1,0,0,0,1 @ F,0,0,1,0,0,0,1 @ F,0,0,1,0,0,0,1 @ F,0,0,1,0,0,0,1 @ F,0,0,1,0,0,0,1 @ F,0,1,1,0,13.229167,0,1"
       radius="50"
       unit="px"
       method="auto"
       mode="F"
       chamfer_steps="1"
       flexible="false"
       use_knot_distance="true"
       apply_no_radius="true"
       apply_with_radius="true"
       only_selected="true"
       hide_knots="false" />
    <inkscape:path-effect
       effect="fillet_chamfer"
       id="path-effect4"
       is_visible="true"
       lpeversion="1"
       nodesatellites_param="F,0,0,1,0,0,0,1 @ F,0,0,1,0,0,0,1 @ F,0,0,1,0,0,0,1 @ F,0,0,1,0,0,0,1 @ F,0,0,1,0,0,0,1 @ F,0,0,1,0,0,0,1 @ F,0,0,1,0,0,0,1 @ F,0,0,1,0,0,0,1"
       radius="10"
       unit="px"
       method="auto"
       mode="F"
       chamfer_steps="1"
       flexible="false"
       use_knot_distance="true"
       apply_no_radius="true"
       apply_with_radius="true"
       only_selected="true"
       hide_knots="false" />
    <inkscape:path-effect
       effect="fillet_chamfer"
       id="path-effect3"
       is_visible="true"
       lpeversion="1"
       nodesatellites_param="F,0,0,1,0,0,0,1 @ F,0,0,1,0,0,0,1 @ F,0,0,1,0,0,0,1 @ F,0,0,1,0,0,0,1 @ F,0,0,1,0,0,0,1 @ F,0,1,1,0,4.4268162,0,1 @ F,0,0,1,0,0,0,1"
       radius="0"
       unit="px"
       method="auto"
       mode="F"
       chamfer_steps="1"
       flexible="false"
       use_knot_distance="true"
       apply_no_radius="true"
       apply_with_radius="true"
       only_selected="true"
       hide_knots="false" />
    <inkscape:path-effect
       effect="fillet_chamfer"
       id="path-effect2"
       is_visible="true"
       lpeversion="1"
       nodesatellites_param="F,0,0,1,0,0,0,1 @ F,0,1,1,0,12.974432,0,1 @ F,0,0,1,0,18.708873,0,1 @ F,0,0,1,0,18.708873,0,1 @ F,0,0,1,0,0,0,1"
       radius="70.7107"
       unit="px"
       method="auto"
       mode="F"
       chamfer_steps="1"
       flexible="false"
       use_knot_distance="true"
       apply_no_radius="true"
       apply_with_radius="true"
       only_selected="true"
       hide_knots="false" />
    <inkscape:path-effect
       effect="fillet_chamfer"
       id="path-effect1"
       is_visible="true"
       lpeversion="1"
       nodesatellites_param="F,0,0,1,0,0,0,1 @ F,0,0,1,0,0,0,1 @ F,0,0,1,0,0,0,1 @ F,0,0,1,0,0,0,1 @ F,0,0,1,0,0,0,1 @ F,0,0,1,0,0,0,1"
       radius="0"
       unit="px"
       method="auto"
       mode="F"
       chamfer_steps="1"
       flexible="false"
       use_knot_distance="true"
       apply_no_radius="true"
       apply_with_radius="true"
       only_selected="true"
       hide_knots="false" />
  </defs>
  <g
     inkscape:label="Layer 1"
     inkscape:groupmode="layer"
     id="layer1">
    <path
       id="path21"
       style="opacity:1;fill:#ff0000;fill-opacity:1;stroke:none;stroke-width:14.0784;stroke-linecap:square;stroke-linejoin:round;stroke-miterlimit:3.8;stroke-dasharray:none;stroke-opacity:1;paint-order:markers stroke fill"
       d="m 604.07991,281.02684 a 29.228397,29.228472 0 0 0 -4.36523,0.16327 29.228397,29.228472 0 0 0 -17.39507,8.37691 29.228397,29.228472 0 0 0 0,41.33546 l 12.94269,12.94274 41.33496,41.33545 41.33534,-41.33546 12.94232,-12.94273 a 29.228397,29.228472 0 0 0 0,-41.33546 29.228397,29.228472 0 0 0 -23.93988,-8.37691 29.228397,29.228472 0 0 0 -17.39508,8.37691 l -12.94269,12.94274 -12.9427,-12.94274 a 29.228397,29.228472 0 0 0 -19.57466,-8.54018 z" />
    <path
       id="path21-2"
       style="fill:none;fill-opacity:1;stroke:#9c8028;stroke-width:18.5208;stroke-linecap:square;stroke-linejoin:round;stroke-miterlimit:3.8;stroke-dasharray:none;stroke-opacity:1;paint-order:markers stroke fill"
       d="m 38.420503,24.633632 a 24.921056,24.032049 0 0 0 -3.72194,0.134243 24.921056,24.032049 0 0 0 -14.83158,6.887609 24.921056,24.032049 0 0 0 0,33.98658 l 11.03534,10.641697 35.2435,33.986579 35.243817,-33.986587 11.03504,-10.641689 a 24.921056,24.032049 0 0 0 0,-33.98658 24.921056,24.032049 0 0 0 -20.411907,-6.887609 24.921056,24.032049 0 0 0 -14.8316,6.887609 L 66.145833,42.297182 55.110473,31.655484 a 24.921056,24.032049 0 0 0 -16.68997,-7.021852 z" />
    <path
       id="path21-2-9"
       style="fill:#ff0000;fill-opacity:1;stroke:#ff0000;stroke-width:18.5208;stroke-linecap:square;stroke-linejoin:round;stroke-miterlimit:3.8;stroke-dasharray:none;stroke-opacity:1;paint-order:markers stroke fill"
       d="m 333.59145,20.126374 a 24.921056,24.032049 0 0 0 -3.72194,0.13425 24.921056,24.032049 0 0 0 -14.83158,6.8876 24.921056,24.032049 0 0 0 0,33.98658 l 11.03534,10.6417 35.2435,33.986576 35.24382,-33.986586 11.03504,-10.64169 a 24.921056,24.032049 0 0 0 0,-33.98658 24.921056,24.032049 0 0 0 -20.41191,-6.8876 24.921056,24.032049 0 0 0 -14.8316,6.8876 l -11.03534,10.6417 -11.03536,-10.6417 a 24.921056,24.032049 0 0 0 -16.68997,-7.02185 z" />
    <path
       id="path2"
       style="fill:#ff0000;fill-opacity:1;stroke:none;stroke-width:18.5208;stroke-linejoin:miter;stroke-dasharray:none;stroke-opacity:1;paint-order:stroke fill markers"
       d="m -197.51145,102.52604 c -16.43909,0 -29.76563,13.32654 -29.76563,29.76562 0.0264,10.58084 1.87529,17.84369 5.85158,25.66588 12.34711,24.28929 53.67967,57.01642 53.67967,57.01642 0,0 41.33255,-32.72712 53.67967,-57.01642 3.97629,-7.82219 5.82517,-15.08504 5.85157,-25.66588 0,-16.43908 -13.32654,-29.76562 -29.76561,-29.76562 -16.43909,0 -29.76563,13.32654 -29.76563,29.76562 0,-16.43908 -13.32654,-29.76562 -29.76562,-29.76562 z"
       sodipodi:nodetypes="scscscscs" />
  </g>
</svg>
