<?xml version="1.0" encoding="UTF-8" standalone="no"?>
<!-- Created with Inkscape (http://www.inkscape.org/) -->

<svg
   width="2000"
   height="2000"
   viewBox="0 0 529.16665 529.16666"
   version="1.1"
   id="svg1"
   inkscape:version="1.3 (0e150ed6c4, 2023-07-21)"
   sodipodi:docname="favicon_gmail.svg"
   inkscape:export-filename="favicon_gmail.png"
   inkscape:export-xdpi="96"
   inkscape:export-ydpi="96"
   xmlns:inkscape="http://www.inkscape.org/namespaces/inkscape"
   xmlns:sodipodi="http://sodipodi.sourceforge.net/DTD/sodipodi-0.dtd"
   xmlns="http://www.w3.org/2000/svg"
   xmlns:svg="http://www.w3.org/2000/svg">
  <sodipodi:namedview
     id="namedview1"
     pagecolor="#ffffff"
     bordercolor="#000000"
     borderopacity="0.25"
     inkscape:showpageshadow="2"
     inkscape:pageopacity="0.0"
     inkscape:pagecheckerboard="0"
     inkscape:deskcolor="#d1d1d1"
     inkscape:document-units="mm"
     inkscape:zoom="0.25039645"
     inkscape:cx="379.39835"
     inkscape:cy="880.60353"
     inkscape:window-width="1920"
     inkscape:window-height="991"
     inkscape:window-x="-9"
     inkscape:window-y="-9"
     inkscape:window-maximized="1"
     inkscape:current-layer="layer1" />
  <defs
     id="defs1">
    <rect
       x="268.27515"
       y="1550.3479"
       width="488.54315"
       height="347.34573"
       id="rect6-3" />
    <rect
       x="268.27515"
       y="1550.3479"
       width="488.54315"
       height="347.34573"
       id="rect6" />
  </defs>
  <g
     inkscape:label="Layer 1"
     inkscape:groupmode="layer"
     id="layer1">
    <rect
       style="fill:#ffffff;fill-opacity:1;stroke:none;stroke-width:0;stroke-dasharray:none"
       id="rect1"
       width="529.16669"
       height="529.16669"
       x="0"
       y="0" />
    <path
       style="color:#000000;fill:#9c8028;fill-opacity:1;stroke-width:0.75;-inkscape-stroke:none"
       d="m 245.62971,190.1699 v 272.85093 h 49.60987 V 190.1699 Z"
       id="path3" />
    <path
       style="color:#000000;fill:#9c8028;fill-opacity:1;stroke-width:0.75;-inkscape-stroke:none"
       d="m 245.62971,190.1699 v 49.60847 H 394.45787 V 190.1699 Z"
       id="path2" />
    <text
       xml:space="preserve"
       transform="matrix(0.36048607,0,0,0.36048414,15.788319,-195.85594)"
       id="text6"
       style="font-style:normal;font-variant:normal;font-weight:normal;font-stretch:normal;font-size:192px;line-height:320px;font-family:Aniron;-inkscape-font-specification:'Aniron, @wght=700,wdth=75.0';font-variant-ligatures:normal;font-variant-caps:normal;font-variant-numeric:normal;font-variant-east-asian:normal;font-variation-settings:'wdth' 75, 'wght' 700;letter-spacing:0.6px;white-space:pre;shape-inside:url(#rect6);display:inline;fill:#9c8028;fill-opacity:1;stroke:none;stroke-width:300;stroke-dasharray:none;stroke-opacity:1"><tspan
         x="268.27539"
         y="1782.8042"
         id="tspan6"><tspan
           style="font-size:333.333px;-inkscape-font-specification:'Aniron, Normal'"
           id="tspan5">10</tspan></tspan></text>
    <text
       xml:space="preserve"
       transform="matrix(0.34726833,0,0,0.34726639,221.68827,-172.47433)"
       id="text6-0"
       style="font-style:normal;font-variant:normal;font-weight:normal;font-stretch:normal;font-size:192px;line-height:320px;font-family:Aniron;-inkscape-font-specification:'Aniron, @wght=700,wdth=75.0';font-variant-ligatures:normal;font-variant-caps:normal;font-variant-numeric:normal;font-variant-east-asian:normal;font-variation-settings:'wdth' 75, 'wght' 700;letter-spacing:0.6px;white-space:pre;shape-inside:url(#rect6-3);display:inline;fill:#9c8028;fill-opacity:1;stroke:none;stroke-width:300;stroke-dasharray:none;stroke-opacity:1"><tspan
         x="268.27539"
         y="1782.8042"
         id="tspan8"><tspan
           style="font-size:333.333px;-inkscape-font-specification:'Aniron, Normal'"
           id="tspan7">27</tspan></tspan></text>
    <path
       id="path1-8"
       style="color:#000000;fill:#9c8028;stroke-width:0.75;-inkscape-stroke:none"
       d="m 270.43528,66.145833 c -81.90155,0 -148.82815,66.926667 -148.82815,148.828307 0,81.90163 66.9266,148.8283 148.82815,148.8283 81.90155,0 148.82815,-66.92667 148.82815,-148.8283 0,-8.45093 -0.75005,-16.72975 -2.11809,-24.80472 h -50.57676 c 2.01355,7.91947 3.08508,16.22881 3.08508,24.80472 0,55.09076 -44.12768,99.21848 -99.21838,99.21848 -55.09071,0 -99.21955,-44.12772 -99.21955,-99.21848 0,-55.09076 44.12884,-99.21848 99.21955,-99.21848 8.57576,0 16.88495,1.07159 24.8043,3.08508 V 68.264311 c -8.07476,-1.367976 -16.35361,-2.118478 -24.8043,-2.118478 z" />
    <path
       id="path1-1"
       style="color:#000000;fill:#9c8028;stroke-width:0.75;-inkscape-stroke:none"
       d="m 270.43489,66.145833 c -81.90155,0 -148.82815,66.926677 -148.82815,148.828307 0,81.90163 66.9266,148.8283 148.82815,148.8283 81.90155,0 148.82815,-66.92667 148.82815,-148.8283 0,-8.45093 -0.75005,-16.72975 -2.11809,-24.80472 h -50.57676 c 2.01355,7.91947 3.08508,16.22881 3.08508,24.80472 0,55.09076 -44.12768,99.21848 -99.21838,99.21848 -55.09071,0 -99.21955,-44.12772 -99.21955,-99.21848 0,-55.09076 44.12884,-99.21848 99.21955,-99.21848 8.57576,0 16.88495,1.07159 24.8043,3.08508 V 68.264311 c -8.07476,-1.367976 -16.35361,-2.118478 -24.8043,-2.118478 z" />
  </g>
</svg>
