<?xml version="1.0" encoding="UTF-8" standalone="no"?>
<!-- Created with Inkscape (http://www.inkscape.org/) -->

<svg
   width="2000"
   height="2000"
   viewBox="0 0 529.16665 529.16666"
   version="1.1"
   id="svg1"
   inkscape:version="1.3 (0e150ed6c4, 2023-07-21)"
   sodipodi:docname="favicon.svg"
   inkscape:export-filename="favicon.png"
   inkscape:export-xdpi="96"
   inkscape:export-ydpi="96"
   xmlns:inkscape="http://www.inkscape.org/namespaces/inkscape"
   xmlns:sodipodi="http://sodipodi.sourceforge.net/DTD/sodipodi-0.dtd"
   xmlns="http://www.w3.org/2000/svg"
   xmlns:svg="http://www.w3.org/2000/svg">
  <sodipodi:namedview
     id="namedview1"
     pagecolor="#ffffff"
     bordercolor="#000000"
     borderopacity="0.25"
     inkscape:showpageshadow="2"
     inkscape:pageopacity="0.0"
     inkscape:pagecheckerboard="0"
     inkscape:deskcolor="#d1d1d1"
     inkscape:document-units="mm"
     inkscape:zoom="0.32"
     inkscape:cx="1259.375"
     inkscape:cy="1170.3125"
     inkscape:window-width="1920"
     inkscape:window-height="991"
     inkscape:window-x="-9"
     inkscape:window-y="-9"
     inkscape:window-maximized="1"
     inkscape:current-layer="layer1" />
  <defs
     id="defs1">
    <rect
       x="268.27514"
       y="1550.3479"
       width="488.54316"
       height="347.34572"
       id="rect6" />
    <rect
       x="268.27515"
       y="1550.3479"
       width="488.54315"
       height="347.34573"
       id="rect6-3" />
    <clipPath
       clipPathUnits="userSpaceOnUse"
       id="clipPath11">
      <path
         style="opacity:1;fill:#9c0028;fill-opacity:1;stroke:none;stroke-width:0.264583;stroke-dasharray:none;stroke-opacity:1"
         d="m 396.875,396.875 -165.36459,-231.51042 1e-5,231.51042 z"
         id="path11"
         sodipodi:nodetypes="cccc" />
    </clipPath>
  </defs>
  <g
     inkscape:label="Layer 1"
     inkscape:groupmode="layer"
     id="layer1">
    <path
       style="color:#000000;fill:#9c8028;-inkscape-stroke:none;fill-opacity:1"
       d="m 231.50977,165.36523 v 363.80079 h 66.14648 V 165.36523 Z"
       id="path3" />
    <path
       style="color:#000000;fill:#9c8028;-inkscape-stroke:none;fill-opacity:1"
       d="m 231.50977,165.36523 v 66.14454 h 198.4375 v -66.14454 z"
       id="path2" />
    <text
       xml:space="preserve"
       transform="matrix(0.480648,0,0,0.48064493,-74.945371,-349.33527)"
       id="text6"
       style="font-style:normal;font-variant:normal;font-weight:normal;font-stretch:normal;font-size:192px;line-height:320px;font-family:Aniron;-inkscape-font-specification:'Aniron, @wght=700,wdth=75.0';font-variant-ligatures:normal;font-variant-caps:normal;font-variant-numeric:normal;font-variant-east-asian:normal;font-variation-settings:'wdth' 75, 'wght' 700;letter-spacing:0.6px;white-space:pre;shape-inside:url(#rect6);display:inline;opacity:1;fill:#9c8028;fill-opacity:1;stroke:none;stroke-width:300;stroke-dasharray:none;stroke-opacity:1"><tspan
         x="268.27539"
         y="1782.8042"
         id="tspan6"><tspan
           style="font-size:333.333px;-inkscape-font-specification:'Aniron, Normal'"
           id="tspan5">10</tspan></tspan></text>
    <text
       xml:space="preserve"
       transform="matrix(0.46302435,0,0,0.46302129,199.58786,-318.15983)"
       id="text6-0"
       style="font-style:normal;font-variant:normal;font-weight:normal;font-stretch:normal;font-size:192px;line-height:320px;font-family:Aniron;-inkscape-font-specification:'Aniron, @wght=700,wdth=75.0';font-variant-ligatures:normal;font-variant-caps:normal;font-variant-numeric:normal;font-variant-east-asian:normal;font-variation-settings:'wdth' 75, 'wght' 700;letter-spacing:0.6px;white-space:pre;shape-inside:url(#rect6-3);display:inline;fill:#9c8028;fill-opacity:1;stroke:none;stroke-width:300;stroke-dasharray:none;stroke-opacity:1"><tspan
         x="268.27539"
         y="1782.8042"
         id="tspan8"><tspan
           style="font-size:333.333px;-inkscape-font-specification:'Aniron, Normal'"
           id="tspan7">27</tspan></tspan></text>
    <path
       id="path1"
       style="color:#000000;fill:#9c8028;-inkscape-stroke:none"
       d="M 264.58385 0 C 155.38181 0 66.14635 89.235452 66.14635 198.4375 C 66.14635 307.63955 155.38181 396.875 264.58385 396.875 C 373.7859 396.875 463.02135 307.63955 463.02135 198.4375 C 463.02135 187.16961 462.02129 176.1312 460.19723 165.36458 L 392.76156 165.36458 C 395.4463 175.92386 396.875 187.00297 396.875 198.4375 C 396.875 271.89176 338.03811 330.72865 264.58385 330.72865 C 191.12959 330.72865 132.29115 271.89176 132.29115 198.4375 C 132.29115 124.98324 191.12959 66.14635 264.58385 66.14635 C 276.0182 66.14635 287.09712 67.575134 297.65625 70.259794 L 297.65625 2.8246338 C 286.8899 1.0006669 275.85144 2.0690988e-15 264.58385 0 z " />
    <path
       id="path1-1"
       style="color:#000000;fill:#9c8028;-inkscape-stroke:none"
       d="M 264.58333,0 C 155.38129,0 66.145833,89.235453 66.145833,198.4375 c 0,109.20205 89.235457,198.4375 198.437497,198.4375 109.20205,0 198.4375,-89.23545 198.4375,-198.4375 0,-11.26789 -1.00006,-22.3063 -2.82412,-33.07292 h -67.43567 c 2.68474,10.55928 4.11344,21.63839 4.11344,33.07292 0,73.45426 -58.83689,132.29115 -132.29115,132.29115 -73.45426,0 -132.2927,-58.83689 -132.2927,-132.29115 0,-73.45426 58.83844,-132.29115 132.2927,-132.29115 11.43435,0 22.51327,1.428784 33.0724,4.113444 V 2.824634 C 286.88938,1.000667 275.85092,0 264.58333,0 Z" />
  </g>
</svg>
