<?xml version="1.0" encoding="UTF-8" standalone="no"?>
<!-- Created with Inkscape (http://www.inkscape.org/) -->

<svg
   width="500"
   height="500"
   viewBox="0 0 132.29166 132.29167"
   version="1.1"
   id="svg1"
   inkscape:version="1.3 (0e150ed6c4, 2023-07-21)"
   sodipodi:docname="heart_filled.svg"
   inkscape:export-filename="heart_filled.png"
   inkscape:export-xdpi="96"
   inkscape:export-ydpi="96"
   xmlns:inkscape="http://www.inkscape.org/namespaces/inkscape"
   xmlns:sodipodi="http://sodipodi.sourceforge.net/DTD/sodipodi-0.dtd"
   xmlns="http://www.w3.org/2000/svg"
   xmlns:svg="http://www.w3.org/2000/svg">
  <sodipodi:namedview
     id="namedview1"
     pagecolor="#ffffff"
     bordercolor="#000000"
     borderopacity="0.25"
     inkscape:showpageshadow="2"
     inkscape:pageopacity="0.0"
     inkscape:pagecheckerboard="0"
     inkscape:deskcolor="#d1d1d1"
     inkscape:document-units="mm"
     inkscape:zoom="0.70822811"
     inkscape:cx="84.718467"
     inkscape:cy="165.907"
     inkscape:window-width="1920"
     inkscape:window-height="991"
     inkscape:window-x="-9"
     inkscape:window-y="-9"
     inkscape:window-maximized="1"
     inkscape:current-layer="layer1" />
  <defs
     id="defs1">
    <inkscape:path-effect
       effect="fillet_chamfer"
       id="path-effect3"
       is_visible="true"
       lpeversion="1"
       nodesatellites_param="F,0,0,1,0,0,0,1 @ F,0,0,1,0,0,0,1 @ F,0,0,1,0,0,0,1 @ F,0,0,1,0,0,0,1 @ F,0,0,1,0,0,0,1 @ F,0,1,1,0,4.4268162,0,1 @ F,0,0,1,0,0,0,1"
       radius="0"
       unit="px"
       method="auto"
       mode="F"
       chamfer_steps="1"
       flexible="false"
       use_knot_distance="true"
       apply_no_radius="true"
       apply_with_radius="true"
       only_selected="true"
       hide_knots="false" />
    <inkscape:path-effect
       effect="fillet_chamfer"
       id="path-effect2"
       is_visible="true"
       lpeversion="1"
       nodesatellites_param="F,0,0,1,0,0,0,1 @ F,0,1,1,0,12.974432,0,1 @ F,0,0,1,0,18.708873,0,1 @ F,0,0,1,0,18.708873,0,1 @ F,0,0,1,0,0,0,1"
       radius="70.7107"
       unit="px"
       method="auto"
       mode="F"
       chamfer_steps="1"
       flexible="false"
       use_knot_distance="true"
       apply_no_radius="true"
       apply_with_radius="true"
       only_selected="true"
       hide_knots="false" />
    <inkscape:path-effect
       effect="fillet_chamfer"
       id="path-effect1"
       is_visible="true"
       lpeversion="1"
       nodesatellites_param="F,0,0,1,0,0,0,1 @ F,0,0,1,0,0,0,1 @ F,0,0,1,0,0,0,1 @ F,0,0,1,0,0,0,1 @ F,0,0,1,0,0,0,1 @ F,0,0,1,0,0,0,1"
       radius="0"
       unit="px"
       method="auto"
       mode="F"
       chamfer_steps="1"
       flexible="false"
       use_knot_distance="true"
       apply_no_radius="true"
       apply_with_radius="true"
       only_selected="true"
       hide_knots="false" />
  </defs>
  <g
     inkscape:label="Layer 1"
     inkscape:groupmode="layer"
     id="layer1">
    <path
       id="path1"
       style="fill:#ff0000;fill-opacity:1;stroke:none;stroke-width:35.9809;stroke-dasharray:none;stroke-opacity:1"
       d="m -118.66581,9.9218742 c -16.43918,0 -29.7658,13.3265388 -29.7658,29.7656238 0.0264,10.580833 1.8753,17.843687 5.85162,25.665873 12.34718,24.289296 53.679908,57.016419 53.679908,57.016419 0,0 41.332511,-32.727113 53.679562,-57.016419 3.976269,-7.822186 5.825137,-15.085042 5.851537,-25.665873 0,-16.439082 -13.326465,-29.7656208 -29.765474,-29.7656238 -16.439084,0 -29.765625,13.3265388 -29.765625,29.7656238 0,-16.439085 -13.326548,-29.7656238 -29.765728,-29.7656238 z"
       sodipodi:nodetypes="scscscscs" />
    <path
       id="path21-2-9"
       style="fill:#ff0000;fill-opacity:1;stroke:#ff0000;stroke-width:18.5208;stroke-linecap:square;stroke-linejoin:round;stroke-miterlimit:3.8;stroke-dasharray:none;stroke-opacity:1;paint-order:markers stroke fill"
       d="m 38.420503,23.336562 a 24.921056,24.032049 0 0 0 -3.72194,0.13425 24.921056,24.032049 0 0 0 -14.83158,6.8876 24.921056,24.032049 0 0 0 0,33.98658 l 11.03534,10.641698 35.2435,33.98658 35.243817,-33.98659 11.03504,-10.641688 a 24.921056,24.032049 0 0 0 0,-33.98658 24.921056,24.032049 0 0 0 -20.411907,-6.8876 24.921056,24.032049 0 0 0 -14.8316,6.8876 l -11.03534,10.6417 -11.03536,-10.6417 a 24.921056,24.032049 0 0 0 -16.68997,-7.02185 z" />
  </g>
</svg>
